# xmcd
#
# Track frame offsets:
#	150
#	14822
#	30380
#	45846
#	62758
#	77699
#	91871
#	105714
#	119488
#	135949
#	149513
#	162969
#
# Disc length: 2381 seconds
#
# Revision: 0
# Processed by: cddbd v1.5.2PL0 Copyright (c) Steve Scherf et al.
# Submitted via: dBpowerAMP V4.0
#
DISCID=95094b0c
DTITLE=Varius - Rot sind die Rosen CD 3
DYEAR=1900
DGENRE=Country
TTITLE0=Die Paldauer - Du hast mir weh getan
TTITLE1=Oliver Thomas - Lass die Gefühle niemals sterben
TTITLE2=Sheila - Der Zauber einer Sommernacht
TTITLE3=Eberhard Hertel - Halt dich nicht an Gestern fest
TTITLE4=Alpentrio Tirol - Wie Samt und Seide
TTITLE5=Stefanie Hertel - Liebe geht im Herzen los
TTITLE6=Christine Nachbauer and Thomas Kießling - Freunde, die zusammen stehn
TTITLE7=Marlena Martinelli and Oliver Haidt - Und dann nimmst du mich in die Arme
TTITLE8=Maxi Arland - Keine Liebe ohne Tränen
TTITLE9=Caraboo - Du
TTITLE10=Tanzpalais - Geht es dir genau wie mir
TTITLE11=Andrea Jürgens - Die letzte Nacht im Paradies
EXTD=
EXTT0=
EXTT1=
EXTT2=
EXTT3=
EXTT4=
EXTT5=
EXTT6=
EXTT7=
EXTT8=
EXTT9=
EXTT10=
EXTT11=
PLAYORDER=
